# xmcd
#
# Track frame offsets:
#	150
#	9875
#	23298
#	33517
#	43563
#	62769
#	74677
#	84411
#	95511
#	107297
#	115804
#	129772
#	143072
#
# Disc length: 3005 seconds
#
# Revision: 0
# Processed by: cddbd v1.5.2PL0 Copyright (c) Steve Scherf et al.
# Submitted via: EasyCDDAExtractor 10.0.6.1
#
DISCID=960bbb0d
DTITLE=Die welken Nelken - Eing'wintert
DYEAR=2003
DGENRE=Christmas
TTITLE0=wie jedes jahr zur weihnacht
TTITLE1=leise rieselt der schnee
TTITLE2=jingle bells
TTITLE3=let it snow
TTITLE4=the cactus christmas tree
TTITLE5=christmas alphabet
TTITLE6=weihnachtsstern
TTITLE7=santa claus is coming to town
TTITLE8=ole saint nicholas
TTITLE9=jingle bell rock
TTITLE10=mele kalikimaka
TTITLE11=here comes santa claus
TTITLE12=feliz navidad
EXTD=
EXTT0=
EXTT1=
EXTT2=
EXTT3=
EXTT4=
EXTT5=
EXTT6=
EXTT7=
EXTT8=
EXTT9=
EXTT10=
EXTT11=
EXTT12=
PLAYORDER=
